# xmcd CD database file
#
# Track frame offsets:
#	187
#	18037
#	39562
#	57375
#
# Disc length: 1049 seconds
#
# Revision: 7
# Processed by: cddbd v1.5PL3 Copyright (c) Steve Scherf et al.
# Submitted via: CDex 1.50beta8
#
DISCID=28041704
DTITLE=SMAP - たいせつ
DYEAR=1998
DGENRE=JPop
TTITLE0=たいせつ
TTITLE1=恋の形
TTITLE2=たいせつ (music track)
TTITLE3=恋の形 (music track)
EXTD=YEAR: 1998
EXTT0=
EXTT1=
EXTT2=
EXTT3=
PLAYORDER=
